<?xml version="1.0" encoding="UTF-8"?><svg id="Warstwa_1" xmlns="http://www.w3.org/2000/svg" viewBox="0 0 1450 350"><defs><style>.cls-1{fill:#fff;}.cls-2{stroke:#fff;stroke-width:20px;}.cls-2,.cls-3{fill:none;stroke-miterlimit:10;}.cls-3{stroke:#999;stroke-width:15px;}.cls-4{fill:#999;}</style></defs><g><path class="cls-1" d="M390.21,74.78h39.85c22.85,0,38.26,1,46.25,2.99,11.42,2.81,20.76,8.59,28.02,17.34,7.25,8.75,10.88,19.75,10.88,32.98s-3.54,24.33-10.61,32.98c-7.07,8.66-16.82,14.49-29.24,17.48-9.07,2.18-26.03,3.26-50.87,3.26h-14.28v93.03h-19.99V74.78Zm19.99,19.59v67.87l33.87,.41c13.69,0,23.71-1.24,30.06-3.73,6.35-2.49,11.33-6.52,14.96-12.08,3.62-5.56,5.44-11.79,5.44-18.67s-1.82-12.83-5.44-18.39c-3.63-5.57-8.41-9.53-14.35-11.88-5.94-2.35-15.67-3.53-29.17-3.53h-35.36Z"/><path class="cls-1" d="M549.21,69.74h19.04v205.11h-19.04V69.74Z"/><path class="cls-1" d="M755.27,126.87v147.98h-18.77v-25.43c-7.98,9.7-16.93,17-26.86,21.9-9.93,4.9-20.79,7.34-32.58,7.34-20.95,0-38.83-7.59-53.66-22.78-14.83-15.19-22.24-33.66-22.24-55.43s7.48-39.53,22.44-54.68c14.96-15.14,32.96-22.71,54-22.71,12.15,0,23.14,2.58,32.98,7.75,9.84,5.17,18.47,12.92,25.91,23.26v-27.2h18.77Zm-76.1,14.55c-10.6,0-20.38,2.61-29.34,7.81-8.97,5.21-16.1,12.52-21.4,21.94-5.3,9.42-7.95,19.38-7.95,29.89s2.67,20.38,8.01,29.89c5.34,9.51,12.52,16.91,21.53,22.21,9.01,5.3,18.68,7.95,29.01,7.95s20.29-2.63,29.62-7.88c9.33-5.25,16.5-12.36,21.53-21.33,5.03-8.97,7.54-19.07,7.54-30.3,0-17.12-5.64-31.43-16.91-42.93-11.28-11.5-25.16-17.25-41.64-17.25Z"/><path class="cls-1" d="M782.2,126.87h20.13l50.86,113.95,49.39-113.95h20.27l-88.27,202.12h-20.11l28.49-65.34-60.74-136.78Z"/><path class="cls-1" d="M968.5,74.78h37.11l46.38,139.55,46.8-139.55h37.08l33.56,200.08h-36.83l-21.45-126.36-42.5,126.36h-33.56l-42.13-126.36-21.97,126.36h-37.13l34.64-200.08Z"/><path class="cls-1" d="M1210.17,65.94c6.51,0,12.09,2.36,16.75,7.07,4.66,4.72,6.99,10.43,6.99,17.14s-2.31,12.26-6.92,16.93c-4.61,4.67-10.13,7-16.54,7s-12.23-2.38-16.89-7.14c-4.66-4.76-6.98-10.54-6.98-17.34s2.3-12.11,6.92-16.73c4.61-4.62,10.17-6.94,16.68-6.94Zm-18.57,60.93h37.13v147.98h-37.13V126.87Z"/><path class="cls-1" d="M1249.14,126.87h43.12l29.25,40.33,29.1-40.33h42.39l-50.24,69.64,56.81,78.34h-43.12l-35.2-48.54-35.02,48.54h-42.4l56.17-77.85-50.86-70.14Z"/></g><g><g><g><path class="cls-3" d="M50,174.83l83.14,.1c27.63,.03,50.04,22.4,50.14,50.03h0c.09,27.66,22.54,50.03,50.2,50.03h55.84"/><polygon class="cls-4" points="283.84 293.7 316.22 275 283.84 256.3 283.84 293.7"/></g><g><path class="cls-3" d="M50,75l83.14,.1c27.63,.03,50.04,22.4,50.14,50.03h0c.09,27.66,22.54,50.03,50.2,50.03h55.84"/><polygon class="cls-4" points="283.84 193.87 316.22 175.17 283.84 156.47 283.84 193.87"/></g></g><g><path class="cls-2" d="M50,275h79.96c29.37,0,53.2-23.78,53.24-53.16l.16-93.69c.05-29.37,23.87-53.16,53.24-53.16h43.74"/><polygon class="cls-1" points="273.05 99.93 316.22 75 273.05 50.07 273.05 99.93"/></g></g></svg>