<?xml version="1.0" encoding="UTF-8"?><svg id="Layer_1" xmlns="http://www.w3.org/2000/svg" viewBox="0 0 566.93 170.04"><defs><style>.cls-1{fill:#1ed760;}</style></defs><path class="cls-1" d="M88,1.28C41.75,1.28,4.25,38.77,4.25,85.02s37.49,83.74,83.74,83.74,83.74-37.49,83.74-83.74S134.25,1.28,88,1.28Zm38.41,120.79c-1.5,2.47-4.72,3.24-7.18,1.74-19.67-12.02-44.42-14.73-73.57-8.07-2.81,.64-5.61-1.12-6.25-3.92-.64-2.81,1.11-5.61,3.93-6.25,31.9-7.29,59.26-4.15,81.34,9.33,2.46,1.5,3.24,4.72,1.73,7.18Zm10.25-22.8c-1.89,3.07-5.91,4.04-8.98,2.15-22.5-13.83-56.82-17.84-83.45-9.76-3.45,1.04-7.1-.9-8.15-4.35-1.04-3.45,.91-7.09,4.35-8.14,30.42-9.23,68.23-4.76,94.07,11.13,3.07,1.89,4.04,5.91,2.15,8.98Zm.88-23.74c-26.99-16.03-71.52-17.5-97.29-9.68-4.14,1.26-8.51-1.08-9.77-5.22-1.25-4.14,1.08-8.51,5.22-9.77,29.58-8.98,78.76-7.24,109.83,11.2,3.72,2.21,4.94,7.02,2.74,10.73-2.21,3.72-7.02,4.95-10.73,2.74Z"/><g><g><path class="cls-1" d="M232.09,78.59c-14.46-3.45-17.03-5.87-17.03-10.95,0-4.8,4.52-8.04,11.25-8.04s12.98,2.46,19.76,7.51c.21,.15,.46,.21,.71,.17,.25-.04,.48-.18,.63-.39l7.06-9.95c.29-.41,.21-.97-.18-1.29-8.07-6.47-17.15-9.62-27.77-9.62-15.61,0-26.52,9.37-26.52,22.77,0,14.38,9.41,19.46,25.66,23.39,13.84,3.19,16.17,5.86,16.17,10.63,0,5.29-4.72,8.58-12.32,8.58-8.44,0-15.32-2.84-23.03-9.51-.19-.16-.45-.24-.69-.23-.25,.02-.49,.14-.65,.33l-7.92,9.42c-.33,.39-.29,.98,.09,1.31,8.96,8,19.98,12.22,31.87,12.22,16.82,0,27.69-9.19,27.69-23.42,0-12.02-7.18-18.67-24.8-22.96Z"/><path class="cls-1" d="M294.95,64.33c-7.29,0-13.27,2.87-18.21,8.76v-6.62c0-.52-.42-.95-.95-.95h-12.95c-.52,0-.95,.43-.95,.95v73.6c0,.52,.42,.95,.95,.95h12.95c.52,0,.95-.43,.95-.95v-23.23c4.93,5.54,10.92,8.24,18.21,8.24,13.55,0,27.27-10.43,27.27-30.37s-13.72-30.37-27.27-30.37Zm12.21,30.37c0,10.15-6.25,17.24-15.21,17.24s-15.53-7.41-15.53-17.24,6.68-17.24,15.53-17.24,15.21,7.25,15.21,17.24Z"/><path class="cls-1" d="M357.37,64.33c-17.45,0-31.12,13.44-31.12,30.59s13.58,30.26,30.9,30.26,31.22-13.39,31.22-30.48-13.62-30.37-31.01-30.37Zm0,47.72c-9.28,0-16.28-7.46-16.28-17.34s6.75-17.13,16.06-17.13,16.39,7.46,16.39,17.35-6.8,17.13-16.17,17.13Z"/><path class="cls-1" d="M425.64,65.51h-14.25v-14.57c0-.52-.42-.95-.95-.95h-12.94c-.52,0-.95,.43-.95,.95v14.57h-6.23c-.52,0-.94,.43-.94,.95v11.13c0,.52,.42,.95,.94,.95h6.23v28.79c0,11.63,5.79,17.53,17.21,17.53,4.64,0,8.5-.96,12.13-3.02,.29-.16,.48-.48,.48-.82v-10.6c0-.33-.17-.64-.45-.81-.28-.18-.63-.19-.92-.04-2.49,1.25-4.91,1.83-7.6,1.83-4.15,0-6.01-1.89-6.01-6.11v-26.76h14.25c.52,0,.94-.43,.94-.95v-11.13c0-.52-.42-.95-.94-.95Z"/><path class="cls-1" d="M475.28,65.57v-1.79c0-5.26,2.02-7.61,6.54-7.61,2.7,0,4.87,.54,7.3,1.35,.3,.09,.61,.05,.85-.13,.25-.18,.39-.47,.39-.77v-10.91c0-.42-.27-.79-.67-.91-2.57-.76-5.85-1.55-10.76-1.55-11.96,0-18.28,6.73-18.28,19.47v2.74h-6.22c-.52,0-.95,.43-.95,.95v11.18c0,.52,.43,.95,.95,.95h6.22v44.41c0,.52,.42,.95,.94,.95h12.95c.52,0,.95-.43,.95-.95v-44.41h12.09l18.52,44.4c-2.1,4.67-4.17,5.59-6.99,5.59-2.28,0-4.68-.68-7.14-2.02-.23-.13-.5-.15-.75-.07-.25,.09-.46,.27-.56,.51l-4.39,9.63c-.21,.45-.03,.99,.41,1.22,4.58,2.48,8.72,3.54,13.83,3.54,9.56,0,14.84-4.45,19.5-16.43l22.46-58.04c.11-.29,.08-.62-.1-.88-.18-.26-.47-.41-.78-.41h-13.48c-.4,0-.76,.26-.9,.64l-13.81,39.44-15.12-39.46c-.14-.37-.49-.61-.88-.61h-22.12Z"/><rect class="cls-1" x="432.61" y="65.51" width="14.84" height="58.38" rx=".95" ry=".95"/><path class="cls-1" d="M440.1,39.79c-5.13,0-9.29,4.15-9.29,9.28s4.16,9.29,9.29,9.29,9.28-4.16,9.28-9.29-4.16-9.28-9.28-9.28Z"/></g><path class="cls-1" d="M553.52,83.67c-5.12,0-9.11-4.11-9.11-9.11s4.04-9.16,9.16-9.16,9.11,4.11,9.11,9.11-4.04,9.16-9.16,9.16Zm.05-17.36c-4.67,0-8.2,3.71-8.2,8.25s3.51,8.2,8.15,8.2,8.2-3.71,8.2-8.25-3.51-8.2-8.15-8.2Zm2.02,9.14l2.58,3.61h-2.17l-2.32-3.31h-1.99v3.31h-1.82v-9.56h4.26c2.22,0,3.68,1.14,3.68,3.05,0,1.57-.91,2.53-2.22,2.9Zm-1.54-4.31h-2.37v3.03h2.37c1.18,0,1.89-.58,1.89-1.51,0-.98-.71-1.51-1.89-1.51Z"/></g></svg>