<?xml version="1.0" encoding="UTF-8"?><svg id="Warstwa_1" xmlns="http://www.w3.org/2000/svg" viewBox="0 0 1946 350"><defs><style>.cls-1{fill:#fff;}.cls-2{stroke:#fff;stroke-width:20px;}.cls-2,.cls-3{fill:none;stroke-miterlimit:10;}.cls-3{stroke:#999;stroke-width:15px;}.cls-4{fill:#999;}</style></defs><g><path class="cls-1" d="M369.67,237.59l17-10.2c11.97,22.03,25.8,33.05,41.48,33.05,6.71,0,13.01-1.56,18.91-4.69,5.89-3.13,10.38-7.32,13.46-12.58,3.08-5.26,4.62-10.83,4.62-16.73,0-6.71-2.27-13.28-6.8-19.72-6.26-8.88-17.68-19.59-34.28-32.1-16.69-12.6-27.07-21.72-31.15-27.34-7.07-9.43-10.61-19.63-10.61-30.6,0-8.71,2.08-16.64,6.26-23.8,4.17-7.16,10.04-12.81,17.61-16.93,7.57-4.12,15.8-6.19,24.69-6.19,9.43,0,18.25,2.34,26.45,7,8.21,4.67,16.89,13.26,26.05,25.77l-16.32,12.38c-7.53-9.97-13.94-16.55-19.25-19.72-5.3-3.17-11.08-4.76-17.34-4.76-8.07,0-14.67,2.45-19.79,7.34-5.12,4.9-7.68,10.93-7.68,18.09,0,4.35,.91,8.57,2.72,12.65,1.81,4.08,5.12,8.52,9.93,13.33,2.63,2.54,11.24,9.2,25.84,19.99,17.32,12.79,29.2,24.17,35.64,34.14,6.44,9.98,9.66,19.99,9.66,30.06,0,14.51-5.51,27.11-16.53,37.81-11.02,10.7-24.42,16.05-40.19,16.05-12.15,0-23.17-3.24-33.05-9.72-9.88-6.48-19-17.34-27.34-32.58Z"/><path class="cls-1" d="M526.22,126.87h19.04v27.2c7.52-10.34,16.17-18.09,25.95-23.26,9.78-5.17,20.7-7.75,32.75-7.75,21.01,0,39,7.57,53.94,22.71,14.95,15.14,22.42,33.37,22.42,54.68s-7.41,40.24-22.22,55.43c-14.81,15.19-32.68,22.78-53.6,22.78-11.78,0-22.6-2.45-32.48-7.34-9.87-4.9-18.8-12.19-26.77-21.9v79.57h-19.04V126.87Zm76.17,14.55c-16.47,0-30.33,5.75-41.59,17.25-11.26,11.5-16.89,25.81-16.89,42.93,0,11.23,2.51,21.33,7.53,30.3,5.02,8.97,12.21,16.08,21.58,21.33,9.36,5.25,19.25,7.88,29.65,7.88s19.83-2.65,28.83-7.95c9-5.3,16.17-12.7,21.51-22.21,5.34-9.51,8.01-19.47,8.01-29.89s-2.65-20.47-7.94-29.89c-5.29-9.42-12.42-16.73-21.37-21.94-8.96-5.21-18.73-7.81-29.31-7.81Z"/><path class="cls-1" d="M786.01,123.06c22.8,0,41.69,8.25,56.68,24.75,13.62,15.05,20.44,32.87,20.44,53.45s-7.2,38.74-21.6,54.2c-14.4,15.46-32.91,23.19-55.52,23.19s-41.26-7.73-55.66-23.19c-14.4-15.46-21.6-33.53-21.6-54.2s6.81-38.26,20.44-53.32c14.99-16.59,33.93-24.89,56.82-24.89Zm-.07,18.63c-15.83,0-29.44,5.85-40.81,17.55s-17.06,25.84-17.06,42.44c0,10.7,2.59,20.67,7.78,29.92,5.19,9.25,12.19,16.39,21.02,21.42,8.83,5.03,18.52,7.55,29.07,7.55s20.25-2.52,29.07-7.55c8.83-5.03,15.83-12.17,21.02-21.42,5.19-9.25,7.78-19.22,7.78-29.92,0-16.59-5.71-30.74-17.13-42.44s-25-17.55-40.74-17.55Z"/><path class="cls-1" d="M914.95,71.92h19.04v54.95h30.2v16.46h-30.2v131.53h-19.04V143.33h-25.98v-16.46h25.98v-54.95Z"/><path class="cls-1" d="M999.35,65.94c4.33,0,8.04,1.54,11.1,4.62,3.07,3.08,4.61,6.8,4.61,11.15s-1.54,7.94-4.61,11.02c-3.07,3.08-6.77,4.62-11.1,4.62s-7.9-1.54-10.97-4.62c-3.07-3.08-4.6-6.75-4.6-11.02s1.53-8.07,4.6-11.15c3.07-3.08,6.73-4.62,10.97-4.62Zm-9.45,60.93h19.04v147.98h-19.04V126.87Z"/><path class="cls-1" d="M1155.15,101.98l-28.21,24.89c-9.9-13.78-19.99-20.67-30.25-20.67-5,0-9.08,1.34-12.26,4.01-3.18,2.68-4.77,5.69-4.77,9.04s1.13,6.53,3.41,9.52c3.09,3.99,12.4,12.56,27.93,25.71,14.53,12.15,23.34,19.81,26.43,22.99,7.72,7.8,13.19,15.26,16.42,22.37,3.22,7.12,4.84,14.89,4.84,23.33,0,16.41-5.67,29.97-17.02,40.67-11.35,10.7-26.14,16.05-44.39,16.05-14.25,0-26.67-3.49-37.24-10.47s-19.63-17.95-27.17-32.92l32.01-19.31c9.63,17.68,20.71,26.52,33.24,26.52,6.54,0,12.03-1.9,16.48-5.71,4.45-3.81,6.67-8.21,6.67-13.19,0-4.53-1.68-9.07-5.04-13.6-3.36-4.53-10.76-11.47-22.21-20.81-21.8-17.77-35.88-31.49-42.24-41.14-6.36-9.66-9.54-19.29-9.54-28.9,0-13.87,5.29-25.78,15.86-35.7,10.58-9.93,23.63-14.89,39.15-14.89,9.99,0,19.5,2.31,28.53,6.94,9.03,4.62,18.81,13.06,29.35,25.3Z"/><path class="cls-1" d="M1191.06,69.74h36.86v72.09c7.25-6.26,14.55-10.95,21.9-14.08,7.34-3.13,14.78-4.69,22.31-4.69,14.69,0,27.07,5.08,37.13,15.23,8.61,8.8,12.92,21.72,12.92,38.76v97.79h-36.59v-64.88c0-17.14-.82-28.74-2.45-34.82-1.63-6.07-4.42-10.61-8.37-13.6-3.94-2.99-8.82-4.49-14.62-4.49-7.53,0-13.99,2.5-19.38,7.48-5.4,4.99-9.14,11.79-11.22,20.4-1.09,4.44-1.63,14.6-1.63,30.47v59.44h-36.86V69.74Z"/><path class="cls-1" d="M1357.95,126.87h37.54v71.27c0,13.87,.95,23.51,2.86,28.9,1.91,5.4,4.98,9.59,9.21,12.58,4.22,2.99,9.43,4.49,15.61,4.49s11.43-1.47,15.75-4.42c4.32-2.95,7.52-7.28,9.61-12.99,1.54-4.26,2.32-13.37,2.32-27.34V126.87h37.13v62.7c0,25.84-2.04,43.53-6.12,53.05-4.99,11.61-12.33,20.52-22.03,26.73-9.7,6.21-22.04,9.32-37,9.32-16.23,0-29.36-3.63-39.38-10.88-10.02-7.25-17.07-17.36-21.15-30.33-2.9-8.98-4.35-25.3-4.35-48.96v-61.61Z"/><path class="cls-1" d="M1507.56,126.87h13.19c.09-19.4,.41-30.88,.95-34.41,1-8.16,4.42-14.62,10.27-19.38,5.85-4.76,14.12-7.14,24.82-7.14,7.71,0,16.41,1.77,26.11,5.3v28.29c-5.35-1.54-9.75-2.31-13.19-2.31-4.35,0-7.53,.91-9.52,2.72-1.45,1.36-2.18,4.17-2.18,8.43l-.14,18.5h23.53v31.42h-23.53v116.56h-37.13v-116.56h-13.19v-31.42Z"/><path class="cls-1" d="M1585.5,126.87h13.19c.09-19.4,.41-30.88,.95-34.41,1-8.16,4.42-14.62,10.27-19.38,5.85-4.76,14.12-7.14,24.82-7.14,7.71,0,16.41,1.77,26.11,5.3v28.29c-5.35-1.54-9.75-2.31-13.19-2.31-4.35,0-7.53,.91-9.52,2.72-1.45,1.36-2.18,4.17-2.18,8.43l-.14,18.5h23.53v31.42h-23.53v116.56h-37.13v-116.56h-13.19v-31.42Z"/><path class="cls-1" d="M1677.04,69.74h37.13v205.11h-37.13V69.74Z"/><path class="cls-1" d="M1896.16,211.61h-119.28c1.72,10.52,6.32,18.89,13.8,25.09,7.48,6.21,17.02,9.32,28.63,9.32,13.87,0,25.8-4.85,35.77-14.55l31.28,14.69c-7.8,11.06-17.14,19.25-28.02,24.55-10.88,5.3-23.8,7.96-38.76,7.96-23.21,0-42.12-7.32-56.72-21.97-14.6-14.64-21.9-32.98-21.9-55.02s7.28-41.33,21.83-56.24c14.55-14.91,32.8-22.37,54.75-22.37,23.3,0,42.25,7.46,56.85,22.37,14.6,14.92,21.9,34.62,21.9,59.1l-.14,7.07Zm-37.13-29.24c-2.45-8.25-7.29-14.96-14.51-20.13-7.22-5.17-15.6-7.75-25.14-7.75-10.35,0-19.44,2.9-27.25,8.71-4.91,3.63-9.45,10.02-13.62,19.18h80.52Z"/></g><g><g><g><path class="cls-3" d="M50,174.83l83.14,.1c27.63,.03,50.04,22.4,50.14,50.03h0c.09,27.66,22.54,50.03,50.2,50.03h55.84"/><polygon class="cls-4" points="283.84 293.7 316.22 275 283.84 256.3 283.84 293.7"/></g><g><path class="cls-3" d="M50,75l83.14,.1c27.63,.03,50.04,22.4,50.14,50.03h0c.09,27.66,22.54,50.03,50.2,50.03h55.84"/><polygon class="cls-4" points="283.84 193.87 316.22 175.17 283.84 156.47 283.84 193.87"/></g></g><g><path class="cls-2" d="M50,275h79.96c29.37,0,53.2-23.78,53.24-53.16l.16-93.69c.05-29.37,23.87-53.16,53.24-53.16h43.74"/><polygon class="cls-1" points="273.05 99.93 316.22 75 273.05 50.07 273.05 99.93"/></g></g></svg>